<?xml version="1.0" encoding="iso-8859-1"?>
<!-- Generator: Adobe Illustrator 19.0.0, SVG Export Plug-In . SVG Version: 6.00 Build 0)  -->
<svg version="1.1" id="Layer_1" xmlns="http://www.w3.org/2000/svg" xmlns:xlink="http://www.w3.org/1999/xlink" x="0px" y="0px"
	 viewBox="0 0 512 512" style="enable-background:new 0 0 512 512;" xml:space="preserve">
<g>
	<g>
		<g>
			<path d="M448,21.33H64c-35.285,0-64,28.715-64,64v128c0,35.285,28.715,64,64,64h384c35.285,0,64-28.715,64-64v-128
				C512,50.045,483.285,21.33,448,21.33z M405.333,213.33H106.667c-11.797,0-21.333-9.557-21.333-21.333s9.536-21.333,21.333-21.333
				h298.667c11.797,0,21.333,9.557,21.333,21.333S417.131,213.33,405.333,213.33z"/>
			<path d="M265.813,369.049c-3.435-1.771-5.355-3.349-6.357-4.395c1.003-1.024,2.923-2.603,6.357-4.373
				c10.453-5.44,14.549-18.304,9.131-28.757c-5.419-10.475-18.24-14.571-28.757-9.152C227.008,332.334,216,347.737,216,364.654
				c0,16.939,11.008,32.341,30.187,42.283c6.464,3.349,7.147,8.853,7.147,11.051c0,2.219-0.683,7.723-7.147,11.072
				c-10.453,5.419-14.549,18.283-9.131,28.757c3.797,7.317,11.243,11.52,18.965,11.52c3.285,0,6.656-0.768,9.792-2.389
				c18.624-9.664,30.187-28.416,30.187-48.96C296,397.465,284.437,378.713,265.813,369.049z"/>
			<path d="M161.813,390.382c-3.435-1.771-5.355-3.349-6.357-4.395c1.003-1.024,2.923-2.603,6.357-4.373
				c10.453-5.44,14.549-18.304,9.131-28.757c-5.419-10.453-18.24-14.549-28.757-9.152C123.008,353.667,112,369.07,112,385.987
				c0,16.939,11.008,32.341,30.187,42.283c3.904,2.027,5.867,5.099,5.867,9.173c0,4.117-2.24,9.685-8.533,12.949
				c-10.453,5.419-14.549,18.283-9.131,28.757c3.797,7.317,11.243,11.52,18.965,11.52c3.285,0,6.656-0.768,9.792-2.389
				c19.477-10.091,31.573-29.568,31.573-50.837C190.72,417.369,179.925,399.769,161.813,390.382z"/>
			<path d="M372.48,390.382c-3.435-1.771-5.355-3.349-6.357-4.395c1.003-1.024,2.923-2.603,6.357-4.373
				c10.453-5.44,14.549-18.304,9.131-28.757c-5.419-10.453-18.261-14.549-28.757-9.152c-19.179,9.963-30.187,25.365-30.187,42.283
				c0,16.939,11.008,32.341,30.187,42.283c6.464,3.349,7.147,8.853,7.147,11.051c0,2.219-0.683,7.723-7.147,11.072
				c-10.453,5.419-14.549,18.283-9.131,28.757c3.797,7.317,11.243,11.52,18.965,11.52c3.285,0,6.656-0.768,9.792-2.389
				c18.624-9.664,30.187-28.416,30.187-48.96C402.667,418.798,391.104,400.046,372.48,390.382z"/>
		</g>
	</g>
</g>
<g>
</g>
<g>
</g>
<g>
</g>
<g>
</g>
<g>
</g>
<g>
</g>
<g>
</g>
<g>
</g>
<g>
</g>
<g>
</g>
<g>
</g>
<g>
</g>
<g>
</g>
<g>
</g>
<g>
</g>
</svg>
