<?xml version="1.0" encoding="iso-8859-1"?>
<!-- Generator: Adobe Illustrator 19.0.0, SVG Export Plug-In . SVG Version: 6.00 Build 0)  -->
<svg version="1.1" id="Layer_1" xmlns="http://www.w3.org/2000/svg" xmlns:xlink="http://www.w3.org/1999/xlink" x="0px" y="0px"
	 viewBox="0 0 503.607 503.607" style="enable-background:new 0 0 503.607 503.607;" xml:space="preserve">
<g>
	<g>
		<g>
			<path d="M361.245,342.234l-15.049-52.66h-10.458v100.721c0,9.258,7.529,16.787,16.787,16.787h33.582v-58.754h-16.795
				C365.568,348.328,362.269,345.843,361.245,342.234z"/>
			<path d="M478.426,46.164H218.229c-13.883,0-25.18,11.298-25.18,25.18h-25.18c-13.883,0-25.18,11.298-25.18,25.18v8.393h-16.787
				c-18.516,0-33.574,15.058-33.574,33.574H8.393c-4.633,0-8.393,3.752-8.393,8.393c0,4.642,3.76,8.393,8.393,8.393h83.934
				c0,18.516,15.058,33.574,33.574,33.574h16.787v8.393c0,13.883,11.298,25.18,25.18,25.18h25.18c0,13.883,11.298,25.18,25.18,25.18
				h67.148v151.082c0,32.39,26.355,58.754,58.754,58.754h75.541c18.516,0,33.574-15.058,33.574-33.574V247.607h25.18
				c13.883,0,25.18-11.298,25.18-25.18V71.344C503.607,57.461,492.309,46.164,478.426,46.164z M193.049,104.918h-8.393
				c-4.633,0-8.393,3.752-8.393,8.393c0,4.642,3.76,8.393,8.393,8.393h8.393v16.787h-8.393c-4.633,0-8.393,3.752-8.393,8.393
				c0,4.642,3.76,8.393,8.393,8.393h8.393v16.787h-8.393c-4.633,0-8.393,3.752-8.393,8.393s3.76,8.393,8.393,8.393h8.393v16.787
				h-25.18c-4.625,0-8.393-3.76-8.393-8.393v-16.787v-67.148V96.525c0-4.633,3.769-8.393,8.393-8.393h25.18V104.918z
				 M402.885,339.934v67.148c0,9.258-7.529,16.787-16.787,16.787h-33.574c-18.516,0-33.574-15.058-33.574-33.574V289.574
				c0-9.258,7.529-16.787,16.787-16.787h16.787h33.574c9.258,0,16.787,7.529,16.787,16.787V339.934z M461.639,163.672h-50.361
				c-4.633,0-8.393-3.752-8.393-8.393c0-4.642,3.76-8.393,8.393-8.393h50.361c4.633,0,8.393,3.752,8.393,8.393
				C470.033,159.92,466.273,163.672,461.639,163.672z M461.639,130.098h-67.148c-4.633,0-8.393-3.752-8.393-8.393
				s3.76-8.393,8.393-8.393h67.148c4.633,0,8.393,3.752,8.393,8.393S466.273,130.098,461.639,130.098z M461.639,96.525h-83.934
				c-4.633,0-8.393-3.752-8.393-8.393c0-4.642,3.76-8.393,8.393-8.393h83.934c4.633,0,8.393,3.752,8.393,8.393
				C470.033,92.773,466.273,96.525,461.639,96.525z"/>
			<polygon points="386.098,331.541 386.098,289.574 363.654,289.574 375.64,331.541 			"/>
		</g>
	</g>
</g>
<g>
</g>
<g>
</g>
<g>
</g>
<g>
</g>
<g>
</g>
<g>
</g>
<g>
</g>
<g>
</g>
<g>
</g>
<g>
</g>
<g>
</g>
<g>
</g>
<g>
</g>
<g>
</g>
<g>
</g>
</svg>
