<?xml version="1.0" encoding="iso-8859-1"?>
<!-- Generator: Adobe Illustrator 19.0.0, SVG Export Plug-In . SVG Version: 6.00 Build 0)  -->
<svg version="1.1" id="Capa_1" xmlns="http://www.w3.org/2000/svg" xmlns:xlink="http://www.w3.org/1999/xlink" x="0px" y="0px"
	 viewBox="0 0 460 460" style="enable-background:new 0 0 460 460;" xml:space="preserve">
<g id="XMLID_871_">
	<path id="XMLID_872_" d="M420,320V65c0-35.841-29.159-65-65-65s-65,29.159-65,65v330c0,19.299-15.701,35-35,35s-35-15.701-35-35
		v-45h40V70h-30v190H30V70H0v280h190v45c0,35.841,29.159,65,65,65s65-29.159,65-65V65c0-19.299,15.701-35,35-35s35,15.701,35,35v255
		h-40v90h10v50h30v-50h30v50h30v-50h10v-90H420z M45,320c-8.284,0-15-6.716-15-15s6.716-15,15-15s15,6.716,15,15S53.284,320,45,320z
		"/>
	<path id="XMLID_875_" d="M200,0H60v230h140V0z M130,190l-20-30h40L130,190z"/>
</g>
<g>
</g>
<g>
</g>
<g>
</g>
<g>
</g>
<g>
</g>
<g>
</g>
<g>
</g>
<g>
</g>
<g>
</g>
<g>
</g>
<g>
</g>
<g>
</g>
<g>
</g>
<g>
</g>
<g>
</g>
</svg>
