<?xml version="1.0" encoding="iso-8859-1"?>
<!-- Generator: Adobe Illustrator 18.0.0, SVG Export Plug-In . SVG Version: 6.00 Build 0)  -->
<!DOCTYPE svg PUBLIC "-//W3C//DTD SVG 1.1//EN" "http://www.w3.org/Graphics/SVG/1.1/DTD/svg11.dtd">
<svg version="1.1" id="Layer_1" xmlns="http://www.w3.org/2000/svg" xmlns:xlink="http://www.w3.org/1999/xlink" x="0px" y="0px"
	 viewBox="0 0 60 60" style="enable-background:new 0 0 60 60;" xml:space="preserve">
<g>
	<polygon points="20,29 14,29 14,24 13,24 13,34 21,34 21,24 20,24 	"/>
	<rect x="16" y="24" width="2" height="3"/>
	<path d="M6,42v15.07C6,58.686,7.314,60,8.93,60H51.07c1.615,0,2.93-1.314,2.93-2.93V42H6z M38,46H22c-0.552,0-1-0.447-1-1
		s0.448-1,1-1h16c0.552,0,1,0.447,1,1S38.552,46,38,46z"/>
	<path d="M29,40V0H8.17C6.974,0,6,0.974,6,2.17V40H29z M25,21c0-0.553,0.448-1,1-1s1,0.447,1,1v16c0,0.553-0.448,1-1,1s-1-0.447-1-1
		V21z M11,22h3h6h3v14H11V22z"/>
	<path d="M31,40h23V2.17C54,0.974,53.026,0,51.83,0H31V40z M41,7h2c0.552,0,1,0.447,1,1s-0.448,1-1,1h-2c-0.552,0-1-0.447-1-1
		S40.448,7,41,7z M34,20c0.552,0,1,0.447,1,1v16c0,0.553-0.448,1-1,1s-1-0.447-1-1V21C33,20.447,33.448,20,34,20z"/>
</g>
<g>
</g>
<g>
</g>
<g>
</g>
<g>
</g>
<g>
</g>
<g>
</g>
<g>
</g>
<g>
</g>
<g>
</g>
<g>
</g>
<g>
</g>
<g>
</g>
<g>
</g>
<g>
</g>
<g>
</g>
</svg>
