<?xml version="1.0" encoding="iso-8859-1"?>
<!-- Generator: Adobe Illustrator 18.0.0, SVG Export Plug-In . SVG Version: 6.00 Build 0)  -->
<!DOCTYPE svg PUBLIC "-//W3C//DTD SVG 1.1//EN" "http://www.w3.org/Graphics/SVG/1.1/DTD/svg11.dtd">
<svg version="1.1" id="Capa_1" xmlns="http://www.w3.org/2000/svg" xmlns:xlink="http://www.w3.org/1999/xlink" x="0px" y="0px"
	 viewBox="0 0 59 59" style="enable-background:new 0 0 59 59;" xml:space="preserve">
<path d="M53.449,26.654L49.479,0.848C49.403,0.36,48.983,0,48.49,0h-38C9.997,0,9.577,0.36,9.502,0.848l-4,26
	c-0.045,0.289,0.039,0.582,0.229,0.804C5.921,27.873,6.198,28,6.49,28h6.314c-2.143,3.251-3.314,7.085-3.314,11
	c0,11.028,8.972,20,20,20s20-8.972,20-20c0-3.915-1.172-7.749-3.314-11h6.314c0.008,0.001,0.016,0,0.02,0c0.553,0,1-0.447,1-1
	C53.51,26.878,53.488,26.762,53.449,26.654z M29.49,55c-8.822,0-16-7.178-16-16c0-3.044,0.853-5.996,2.467-8.536
	c0.296-0.466,0.915-0.605,1.38-0.308c0.466,0.296,0.604,0.914,0.308,1.38c-1.409,2.22-2.154,4.8-2.154,7.464c0,7.72,6.28,14,14,14
	c0.553,0,1,0.447,1,1S30.043,55,29.49,55z M43.49,31c0,0.553-0.447,1-1,1h-2v9c0,0.553-0.447,1-1,1s-1-0.447-1-1v-9h-2
	c-0.553,0-1-0.447-1-1v-3h2v2h4v-2h2V31z"/>
<g>
</g>
<g>
</g>
<g>
</g>
<g>
</g>
<g>
</g>
<g>
</g>
<g>
</g>
<g>
</g>
<g>
</g>
<g>
</g>
<g>
</g>
<g>
</g>
<g>
</g>
<g>
</g>
<g>
</g>
</svg>
