<?xml version="1.0" encoding="iso-8859-1"?>
<!-- Generator: Adobe Illustrator 18.0.0, SVG Export Plug-In . SVG Version: 6.00 Build 0)  -->
<!DOCTYPE svg PUBLIC "-//W3C//DTD SVG 1.1//EN" "http://www.w3.org/Graphics/SVG/1.1/DTD/svg11.dtd">
<svg version="1.1" id="Capa_1" xmlns="http://www.w3.org/2000/svg" xmlns:xlink="http://www.w3.org/1999/xlink" x="0px" y="0px"
	 viewBox="0 0 60.02 60.02" style="enable-background:new 0 0 60.02 60.02;" xml:space="preserve">
<g>
	<path d="M59.374,31.574L40,20.919V18.51c0-0.553-0.448-1-1-1h-2v-2h1c0.552,0,1-0.447,1-1v-3c0-0.553-0.448-1-1-1h-5v-3
		c0-0.553-0.448-1-1-1h-1v-5c0-0.553-0.448-1-1-1s-1,0.447-1,1v5h-1c-0.552,0-1,0.447-1,1v3h-5c-0.552,0-1,0.447-1,1v3
		c0,0.553,0.448,1,1,1h1v2h-2c-0.552,0-1,0.447-1,1v2.409L0.518,31.634c-0.4,0.22-0.6,0.683-0.487,1.125
		C0.145,33.2,0.544,33.51,1,33.51h20c-0.489,0-0.906,0.354-0.986,0.836l-1.863,11.177c-0.582,3.49,0.396,7.04,2.684,9.739
		c2.287,2.7,5.627,4.248,9.166,4.248s6.879-1.548,9.166-4.248c2.287-2.699,3.265-6.249,2.684-9.739l-1.863-11.177
		c-0.08-0.482-0.498-0.836-0.986-0.836h20c0.008,0,0.015,0,0.02,0c0.553,0,1-0.447,1-1C60.02,32.082,59.752,31.718,59.374,31.574z
		 M33,34.51c0,0.553-0.448,1-1,1h-1v2h1c1.654,0,3,1.346,3,3s-1.346,3-3,3h-1v2h1c1.654,0,3,1.346,3,3s-1.346,3-3,3
		c-0.552,0-1-0.447-1-1c0,0.553-0.448,1-1,1s-1-0.447-1-1v-3h-1c-1.654,0-3-1.346-3-3s1.346-3,3-3h1v-2h-1c-1.654,0-3-1.346-3-3
		s1.346-3,3-3h4C32.552,33.51,33,33.957,33,34.51z"/>
	<path d="M32,49.51c0.551,0,1-0.448,1-1s-0.449-1-1-1h-1v3C31,49.957,31.448,49.51,32,49.51z"/>
	<path d="M33,40.51c0-0.552-0.449-1-1-1h-1v2h1C32.551,41.51,33,41.062,33,40.51z"/>
	<path d="M27,44.51c0,0.552,0.449,1,1,1h1v-2h-1C27.449,43.51,27,43.958,27,44.51z"/>
	<path d="M27,36.51c0,0.552,0.449,1,1,1h1v-2h-1C27.449,35.51,27,35.958,27,36.51z"/>
</g>
<g>
</g>
<g>
</g>
<g>
</g>
<g>
</g>
<g>
</g>
<g>
</g>
<g>
</g>
<g>
</g>
<g>
</g>
<g>
</g>
<g>
</g>
<g>
</g>
<g>
</g>
<g>
</g>
<g>
</g>
</svg>
