<?xml version='1.0' encoding='iso-8859-1'?>
<!DOCTYPE svg PUBLIC '-//W3C//DTD SVG 1.1//EN' 'http://www.w3.org/Graphics/SVG/1.1/DTD/svg11.dtd'>
<svg version="1.1" id="Layer_1" xmlns="http://www.w3.org/2000/svg" viewBox="0 0 302 302" xmlns:xlink="http://www.w3.org/1999/xlink" enable-background="new 0 0 302 302">
  <g>
    <path d="m289.5,52.5h-277c-6.903,0-12.5,5.597-12.5,12.5v172c0,6.903 5.597,12.5 12.5,12.5h277c6.903,0 12.5-5.597 12.5-12.5v-172c0-6.903-5.597-12.5-12.5-12.5zm-77.667,138.509c0,6.99-5.667,12.658-12.657,12.658h-140.685c-6.991,0-12.658-5.667-12.658-12.658v-80.018c0-6.991 5.667-12.657 12.658-12.657h140.685c6.99,0 12.657,5.667 12.657,12.657v80.018zm45.491-6.454c-10.125,0-18.333-8.208-18.333-18.333 0-10.125 8.208-18.333 18.333-18.333 10.125,0 18.333,8.208 18.333,18.333-5.68434e-14,10.125-8.208,18.333-18.333,18.333zm0-63c-10.125,0-18.333-8.208-18.333-18.333 0-10.125 8.208-18.333 18.333-18.333 10.125,0 18.333,8.208 18.333,18.333-5.68434e-14,10.125-8.208,18.333-18.333,18.333z"/>
    <path d="m174.004,129.891h-90.342c-2.198,0-4.284,0.967-5.707,2.641-1.423,1.675-2.046,3.893-1.69,6.062 2.733,16.631 13.169,30.666 27.522,38.326 2.648,1.413 5.561,2.134 8.562,2.134h32.966c2.981,0 5.933-0.731 8.562-2.134 14.353-7.659 24.79-21.695 27.523-38.326 0.357-2.17-0.259-4.388-1.684-6.064-1.423-1.676-3.513-2.639-5.712-2.639z"/>
  </g>
</svg>
