<?xml version="1.0" encoding="iso-8859-1"?>
<!-- Generator: Adobe Illustrator 19.0.0, SVG Export Plug-In . SVG Version: 6.00 Build 0)  -->
<svg version="1.1" id="Layer_1" xmlns="http://www.w3.org/2000/svg" xmlns:xlink="http://www.w3.org/1999/xlink" x="0px" y="0px"
	 viewBox="0 0 489.6 489.6" style="enable-background:new 0 0 489.6 489.6;" xml:space="preserve">
<g>
	<g>
		<g>
			<path d="M442.2,33.8V0H289.5v33.8h-89.4V0H47.4v33.8H0v71.1h489.6V33.8H442.2z M96.8,84.3H64.9c-5.4,0-10.1-4.3-10.1-10.1
				c0-5.4,4.3-10.1,10.1-10.1h31.9c5.4,0,10.1,4.3,10.1,10.1S102.2,84.3,96.8,84.3z M205.9,84.3H174c-5.4,0-10.1-4.3-10.1-10.1
				c0-5.4,4.3-10.1,10.1-10.1h31.9c5.4,0,10.1,4.3,10.1,10.1C216,80,211.4,84.3,205.9,84.3z M315.1,84.3h-31.5
				c-5.4,0-10.1-4.3-10.1-10.1c0-5.4,4.3-10.1,10.1-10.1h31.9c5.4,0,10.1,4.3,10.1,10.1C325.2,80,320.6,84.3,315.1,84.3z
				 M424.3,84.3h-31.9c-5.4,0-10.1-4.3-10.1-10.1c0-5.4,4.3-10.1,10.1-10.1h31.9c5.4,0,10.1,4.3,10.1,10.1S430.2,84.3,424.3,84.3z"
				/>
			<path d="M423.9,184.6H65.7v210.2H424V184.6H423.9z M94,294.5c-3.7-4-3.9-10.1,0-14l64.9-64.9c3.9-3.9,10.1-3.9,14,0
				s3.9,10.1,0,14L108,294.9C102.2,300.4,95.8,296.5,94,294.5z M189.6,275.9l-35.7,35.7c-6.1,6-12,1.9-14,0c-3.9-3.9-3.9-10.1,0-14
				l35.7-35.7c3.9-3.9,10.1-3.9,14,0S193.5,272,189.6,275.9z"/>
			<path d="M0,455.8h46.6v33.8h78.9v-33.8h244.4v33.8h78.9v-33.8h40.8V125.1H0V455.8z M45.8,174.5c0-5.4,4.3-10.1,10.1-10.1H434
				c5.4,0,10.1,4.3,10.1,10.1v230c0,5.4-4.3,10.1-10.1,10.1H55.9c-5.4,0-10.1-4.3-10.1-10.1V174.5z"/>
		</g>
	</g>
</g>
<g>
</g>
<g>
</g>
<g>
</g>
<g>
</g>
<g>
</g>
<g>
</g>
<g>
</g>
<g>
</g>
<g>
</g>
<g>
</g>
<g>
</g>
<g>
</g>
<g>
</g>
<g>
</g>
<g>
</g>
</svg>
