<?xml version="1.0" encoding="iso-8859-1"?>
<!-- Generator: Adobe Illustrator 19.0.0, SVG Export Plug-In . SVG Version: 6.00 Build 0)  -->
<svg version="1.1" id="Layer_1" xmlns="http://www.w3.org/2000/svg" xmlns:xlink="http://www.w3.org/1999/xlink" x="0px" y="0px"
	 viewBox="0 0 512 512" style="enable-background:new 0 0 512 512;" xml:space="preserve">
<path style="fill:#79695A;" d="M325.999,490.267h-140c-9.935,0-17.645-8.596-16.646-18.4l16.733-167.333
	c0.85-8.552,8.051-15.067,16.646-15.067h106.533c8.595,0,15.796,6.515,16.646,15.067l16.733,167.333
	C343.644,481.67,335.934,490.267,325.999,490.267z"/>
<path style="fill:#6C5B52;" d="M309.266,289.467h-53.544v200.8h70.278c9.935,0,17.645-8.596,16.646-18.4l-16.733-167.333
	C325.062,295.982,317.861,289.467,309.266,289.467z"/>
<path style="fill:#DBE1F1;" d="M508.728,255.108l-75.3-200.8c-7.25-19.522-26.102-32.574-46.965-32.574H125.537
	c-20.862,0-39.715,13.052-46.966,32.574l-75.3,200.8c-12.383,32.797,11.935,67.826,46.966,67.826h411.527
	C496.793,322.933,521.112,287.905,508.728,255.108z"/>
<path style="fill:#D0D5E5;" d="M461.764,322.933H255.721v-301.2h130.743c20.862,0,39.715,13.052,46.965,32.574l75.3,200.8
	C521.112,287.905,496.793,322.933,461.764,322.933z"/>
<path style="fill:#7C84E8;" d="M125.526,55.2c-6.94,0-13.236,4.369-15.677,10.861l-75.3,200.8
	c-4.092,10.927,3.943,22.606,15.677,22.606h411.546c11.733,0,19.769-11.679,15.677-22.606l-75.3-200.8
	c-2.441-6.493-8.737-10.861-15.677-10.861L125.526,55.2L125.526,55.2z"/>
<path style="fill:#515BE0;" d="M402.149,66.061c-2.441-6.493-8.737-10.861-15.677-10.861H255.721v234.267h206.051
	c11.733,0,19.768-11.679,15.677-22.606L402.149,66.061z"/>
<g>
	<path style="fill:#DBE1F1;" d="M471.817,222.533H40.181c-9.238,0-16.733-7.49-16.733-16.733c0-9.243,7.495-16.733,16.733-16.733
		h431.635c9.238,0,16.733,7.49,16.733,16.733C488.55,215.044,481.055,222.533,471.817,222.533z"/>
	<path style="fill:#DBE1F1;" d="M434.766,122.133H77.232c-9.238,0-16.733-7.49-16.733-16.733s7.495-16.733,16.733-16.733h357.533
		c9.238,0,16.733,7.49,16.733,16.733S444.004,122.133,434.766,122.133z"/>
	<path style="fill:#DBE1F1;" d="M169.288,322.933c-0.697,0-1.394-0.044-2.103-0.131c-9.162-1.143-15.666-9.51-14.522-18.678
		l33.467-267.733c1.143-9.173,9.554-15.639,18.683-14.527c9.162,1.143,15.666,9.51,14.522,18.678l-33.467,267.733
		C184.812,316.74,177.6,322.933,169.288,322.933z"/>
</g>
<path style="fill:#D0D5E5;" d="M342.711,322.933c-8.312,0-15.524-6.194-16.581-14.658L292.664,40.542
	c-1.143-9.168,5.36-17.534,14.522-18.678c9.14-1.111,17.54,5.355,18.683,14.527l33.467,267.733
	c1.143,9.168-5.36,17.534-14.522,18.678C344.106,322.89,343.408,322.933,342.711,322.933z"/>
<path style="fill:#91867E;" d="M376.199,490.267h-240.4c-9.238,0-16.733-7.49-16.733-16.733s7.495-16.733,16.733-16.733h240.4
	c9.238,0,16.733,7.49,16.733,16.733S385.437,490.267,376.199,490.267z"/>
<g>
	<path style="fill:#D0D5E5;" d="M434.766,88.667H255.721v33.467h179.045c9.238,0,16.733-7.49,16.733-16.733
		S444.004,88.667,434.766,88.667z"/>
	<path style="fill:#D0D5E5;" d="M471.817,189.067H255.721v33.467h216.095c9.238,0,16.733-7.49,16.733-16.733
		C488.55,196.557,481.055,189.067,471.817,189.067z"/>
</g>
<path style="fill:#847976;" d="M376.199,456.8H255.721v33.467h120.478c9.238,0,16.733-7.49,16.733-16.733
	S385.437,456.8,376.199,456.8z"/>
<g>
</g>
<g>
</g>
<g>
</g>
<g>
</g>
<g>
</g>
<g>
</g>
<g>
</g>
<g>
</g>
<g>
</g>
<g>
</g>
<g>
</g>
<g>
</g>
<g>
</g>
<g>
</g>
<g>
</g>
</svg>
