<?xml version="1.0" encoding="iso-8859-1"?>
<!-- Generator: Adobe Illustrator 18.0.0, SVG Export Plug-In . SVG Version: 6.00 Build 0)  -->
<!DOCTYPE svg PUBLIC "-//W3C//DTD SVG 1.1//EN" "http://www.w3.org/Graphics/SVG/1.1/DTD/svg11.dtd">
<svg version="1.1" id="Capa_1" xmlns="http://www.w3.org/2000/svg" xmlns:xlink="http://www.w3.org/1999/xlink" x="0px" y="0px"
	 viewBox="0 0 60 60" style="enable-background:new 0 0 60 60;" xml:space="preserve">
<g>
	<path d="M21.491,32.896C21.633,32.967,21.785,33,21.935,33c0.368,0,0.722-0.203,0.896-0.555C24.193,29.703,26.94,28,30,28
		c0.552,0,1-0.447,1-1s-0.448-1-1-1c-3.824,0-7.257,2.129-8.96,5.555C20.794,32.05,20.996,32.649,21.491,32.896z"/>
	<circle cx="21" cy="35" r="1"/>
	<path d="M18.346,43.743c0.367,0.55,0.779,1.065,1.218,1.556l-0.027,0.038l0.601,0.598c1.611,1.599,3.545,2.753,5.651,3.416
		c0.02,0.006,0.038,0.014,0.058,0.021c0.378,0.117,0.763,0.212,1.151,0.297c0.068,0.015,0.133,0.036,0.201,0.05
		c0.36,0.073,0.725,0.123,1.092,0.167c0.1,0.012,0.196,0.034,0.297,0.044C29.054,49.975,29.525,50,30,50
		c0.27,0,0.533-0.025,0.799-0.041C30.866,49.974,30.929,50,31,50c0.119,0,0.229-0.03,0.335-0.068C38.43,49.258,44,43.269,44,36
		c0-7.72-6.28-14-14-14s-14,6.28-14,14c0,2.66,0.759,5.14,2.053,7.26C18.105,43.45,18.202,43.616,18.346,43.743z M24.124,43.457
		C24.291,43.775,24.615,44,25,44c0.552,0,1-0.448,1-1c0-0.156-0.043-0.3-0.107-0.432C26.878,42.204,27.926,42,29,42h2h1
		c2.516,0,4.918-0.675,7.02-1.9C39.073,40.603,39.483,41,40,41c0.552,0,1-0.448,1-1c0-0.38-0.22-0.699-0.532-0.869
		c0.472-0.361,0.93-0.742,1.357-1.166c-0.013,0.08-0.022,0.162-0.037,0.241c-0.029,0.156-0.063,0.312-0.098,0.466
		c-0.049,0.216-0.104,0.43-0.165,0.642c-0.044,0.153-0.09,0.304-0.139,0.454c-0.069,0.208-0.146,0.414-0.226,0.617
		c-0.057,0.144-0.113,0.289-0.175,0.43c-0.09,0.206-0.19,0.406-0.292,0.605c-0.067,0.131-0.13,0.263-0.201,0.391
		c-0.118,0.212-0.247,0.416-0.377,0.619c-0.068,0.106-0.131,0.217-0.202,0.321c-0.193,0.282-0.397,0.554-0.612,0.818
		c-0.018,0.022-0.035,0.046-0.053,0.069c-0.23,0.278-0.474,0.545-0.729,0.801c-0.088,0.089-0.184,0.17-0.274,0.257
		c-0.175,0.166-0.35,0.331-0.534,0.486c-0.112,0.094-0.231,0.182-0.346,0.272c-0.174,0.135-0.348,0.27-0.529,0.396
		c-0.127,0.088-0.258,0.171-0.388,0.254c-0.18,0.115-0.362,0.228-0.549,0.333c-0.137,0.078-0.277,0.152-0.418,0.225
		c-0.189,0.098-0.382,0.19-0.577,0.278c-0.145,0.065-0.29,0.128-0.438,0.188c-0.201,0.081-0.406,0.154-0.613,0.225
		c-0.148,0.051-0.296,0.102-0.447,0.147c-0.218,0.065-0.44,0.118-0.663,0.171c-0.146,0.034-0.29,0.072-0.438,0.101
		c-0.249,0.049-0.502,0.083-0.756,0.116c-0.127,0.017-0.252,0.04-0.38,0.052C30.783,47.978,30.394,48,30,48
		c-0.392,0-0.779-0.022-1.162-0.059c-0.11-0.01-0.218-0.03-0.328-0.044c-0.276-0.034-0.55-0.073-0.82-0.125
		c-0.114-0.022-0.225-0.051-0.338-0.076c-0.266-0.06-0.53-0.125-0.789-0.203c-0.101-0.03-0.201-0.064-0.301-0.096
		c-0.27-0.089-0.536-0.185-0.797-0.292c-0.084-0.034-0.168-0.07-0.251-0.106c-0.273-0.119-0.54-0.249-0.802-0.387
		c-0.069-0.036-0.138-0.072-0.207-0.11c-0.27-0.15-0.532-0.311-0.789-0.48c-0.058-0.038-0.117-0.074-0.174-0.113
		c-0.106-0.073-0.205-0.155-0.308-0.23c-0.107-0.31-0.357-0.538-0.676-0.626C22.808,44.431,23.439,43.9,24.124,43.457z M30,24
		c6.267,0,11.42,4.832,11.948,10.965c-0.188,0.106-0.361,0.244-0.498,0.42C39.157,38.317,35.713,40,32,40h-3
		c-3.144,0-6.126,1.362-8.202,3.688C19.054,41.604,18,38.924,18,36C18,29.383,23.383,24,30,24z"/>
	<circle cx="28" cy="46" r="1"/>
	<circle cx="31" cy="43" r="1"/>
	<circle cx="37" cy="43" r="1"/>
	<circle cx="34" cy="46" r="1"/>
	<path d="M22,0H10.67C8.646,0,7,1.646,7,3.67V12h15V0z M16,11c-2.206,0-4-1.794-4-4s1.794-4,4-4s4,1.794,4,4S18.206,11,16,11z"/>
	<path d="M49.33,0H38v12h15V3.67C53,1.646,51.354,0,49.33,0z M44,11c-2.206,0-4-1.794-4-4s1.794-4,4-4s4,1.794,4,4S46.206,11,44,11z
		"/>
	<rect x="24" width="12" height="12"/>
	<path d="M7,56.33C7,58.354,8.646,60,10.67,60h38.66c2.023,0,3.67-1.646,3.67-3.67V14H7V56.33z M30,18c9.925,0,18,8.075,18,18
		s-8.075,18-18,18s-18-8.075-18-18S20.075,18,30,18z"/>
</g>
<g>
</g>
<g>
</g>
<g>
</g>
<g>
</g>
<g>
</g>
<g>
</g>
<g>
</g>
<g>
</g>
<g>
</g>
<g>
</g>
<g>
</g>
<g>
</g>
<g>
</g>
<g>
</g>
<g>
</g>
</svg>
