<?xml version="1.0" encoding="iso-8859-1"?>
<!-- Generator: Adobe Illustrator 19.0.0, SVG Export Plug-In . SVG Version: 6.00 Build 0)  -->
<svg version="1.1" id="Capa_1" xmlns="http://www.w3.org/2000/svg" xmlns:xlink="http://www.w3.org/1999/xlink" x="0px" y="0px"
	 viewBox="0 0 59 59" style="enable-background:new 0 0 59 59;" xml:space="preserve">
<g>
	<path d="M16.5,0.5C14.57,0.5,13,2.07,13,4v36c0,1.93,1.57,3.5,3.5,3.5S20,41.93,20,40V4C20,2.07,18.43,0.5,16.5,0.5z"/>
	<path d="M24.5,0.5C22.57,0.5,21,2.07,21,4v36c0,1.93,1.57,3.5,3.5,3.5S28,41.93,28,40V4C28,2.07,26.43,0.5,24.5,0.5z"/>
	<path d="M51,14.5c-4.072,0-7.436,3.06-7.931,7H41v-3v-10h-2v9h-3V4c0-1.93-1.57-3.5-3.5-3.5S29,2.07,29,4v36
		c0,1.93,1.57,3.5,3.5,3.5S36,41.93,36,40V26.5h3v9h2v-10v-2h2.069c0.495,3.94,3.859,7,7.931,7c4.411,0,8-3.589,8-8
		S55.411,14.5,51,14.5z M36,24.5v-5h3v5H36z M56.91,21.5H52v-4.91C54.507,17.014,56.486,18.993,56.91,21.5z M50,16.59v4.91h-4.91
		C45.514,18.993,47.493,17.014,50,16.59z M45.09,23.5H50v4.91C47.493,27.986,45.514,26.007,45.09,23.5z M52,28.41V23.5h4.91
		C56.486,26.007,54.507,27.986,52,28.41z"/>
	<path d="M12,42.28V4c0-1.93-1.57-3.5-3.5-3.5S5,2.07,5,4v13.5H2v-9H0v10v7v10h2v-9h3v15.78c-0.609,0.549-1,1.337-1,2.22
		c0,0.891,0.398,1.684,1.017,2.234l0.851,9.363C5.993,57.467,7.125,58.5,8.5,58.5s2.507-1.033,2.632-2.403l0.851-9.363
		C12.602,46.184,13,45.391,13,44.5C13,43.617,12.609,42.83,12,42.28z M6,44.5c0-0.381,0.222-0.703,0.537-0.871
		c0.05-0.027,0.1-0.047,0.15-0.065C6.787,43.53,6.889,43.5,7,43.5h3c0.111,0,0.213,0.03,0.313,0.063
		c0.05,0.018,0.1,0.038,0.15,0.065C10.778,43.797,11,44.119,11,44.5c0,0.551-0.448,1-1,1H7C6.448,45.5,6,45.051,6,44.5z M2,24.5v-5
		h3v5H2z"/>
</g>
<g>
</g>
<g>
</g>
<g>
</g>
<g>
</g>
<g>
</g>
<g>
</g>
<g>
</g>
<g>
</g>
<g>
</g>
<g>
</g>
<g>
</g>
<g>
</g>
<g>
</g>
<g>
</g>
<g>
</g>
</svg>
